<?xml version="1.0" encoding="UTF-8"?>
<svg version="1.1" xmlns="http://www.w3.org/2000/svg" width="370" height="184" viewBox="0 0 370 184" role="img" aria-label="Predbat logo">
<style>
  .dark { display: none; }
  @media (prefers-color-scheme: dark) {
    .light { display: none; }
    .dark { display: inline; }
  }
</style>
<g class="light">
<path d="M0 0 C0.11320856 -5.08303686 0.11320856 -5.08303686 -1 -10 C2.78786597 -9.4739075 5.17152224 -8.61896089 8 -6 C8 -5.34 8 -4.68 8 -4 C8.99 -3.67 9.98 -3.34 11 -3 C11 -2.34 11 -1.68 11 -1 C11.66 -1 12.32 -1 13 -1 C14.50658452 0.94952037 15.88900839 2.88952361 17.25 4.9375 C17.64896484 5.53071045 18.04792969 6.1239209 18.45898438 6.73510742 C19.26441288 7.93303641 20.06781677 9.13232925 20.86914062 10.33300781 C21.84540047 11.77210588 22.86427302 13.1821255 23.890625 14.5859375 C27.43023285 19.48296778 28.77935514 22.93226632 29 29 C29.59748047 27.80503906 29.59748047 27.80503906 30.20703125 26.5859375 C32.8046875 21.390625 35.40234375 16.1953125 38 11 C39.32 11.33 40.64 11.66 42 12 C42 14.64 42 17.28 42 20 C44.97 20 47.94 20 51 20 C51.33 17.03 51.66 14.06 52 11 C52.99 11 53.98 11 55 11 C55.23710693 11.50974365 55.47421387 12.0194873 55.71850586 12.54467773 C56.78925593 14.84334017 57.86333195 17.14043294 58.9375 19.4375 C59.31068359 20.23994141 59.68386719 21.04238281 60.06835938 21.86914062 C60.42607422 22.63291016 60.78378906 23.39667969 61.15234375 24.18359375 C61.6472229 25.24404907 61.6472229 25.24404907 62.15209961 26.32592773 C62.88534557 27.9891159 62.88534557 27.9891159 64 29 C64.185625 27.741875 64.37125 26.48375 64.5625 25.1875 C65.94888892 18.9241685 69.408151 14.21494395 73 9 C73.53367188 8.16726562 74.06734375 7.33453125 74.6171875 6.4765625 C77.3879131 2.15537906 80.15843815 -1.54259434 84 -5 C84.50789062 -5.46535156 85.01578125 -5.93070313 85.5390625 -6.41015625 C89.59888579 -10 89.59888579 -10 93 -10 C93 -6.7 93 -3.4 93 0 C94.14210937 -0.598125 95.28421875 -1.19625 96.4609375 -1.8125 C125.33087927 -16.20313355 161.89143607 -17.73484374 193 -11 C193.33 -10.01 193.66 -9.02 194 -8 C192.86304688 -7.79246094 191.72609375 -7.58492187 190.5546875 -7.37109375 C175.74209763 -4.49171834 162.85414192 -0.18367756 153 12 C152.41992188 13.04929687 151.83984375 14.09859375 151.2421875 15.1796875 C148.74042309 18.32650614 147.2861593 18.81019742 143.36401367 19.34033203 C142.66638916 19.41364746 141.96876465 19.48696289 141.25 19.5625 C134.66168442 20.49933992 130.42434063 21.95833443 125 26 C124.01 26.33 123.02 26.66 122 27 C121.27095914 28.64034193 120.61344757 30.31301918 120 32 C119.525625 32.763125 119.05125 33.52625 118.5625 34.3125 C117.22381873 36.61503178 116.31162623 38.68327206 115.40234375 41.16796875 C115.13800537 41.88621826 114.87366699 42.60446777 114.60131836 43.34448242 C114.4028833 43.89080322 114.20444824 44.43712402 114 45 C113.22922119 45.01458252 112.45844238 45.02916504 111.66430664 45.04418945 C108.12989827 45.11923166 104.59637693 45.21570647 101.0625 45.3125 C99.24395508 45.34633789 99.24395508 45.34633789 97.38867188 45.38085938 C85.22655137 45.74341581 74.3472945 48.6719094 65.3125 57.25 C57.02514679 66.20262239 52.71328069 76.91063148 48 88 C47.01 88 46.02 88 45 88 C44.68546875 87.29875 44.3709375 86.5975 44.046875 85.875 C42.70988307 82.91106608 41.35760037 79.95454648 40 77 C39.67773438 76.28714844 39.35546875 75.57429688 39.0234375 74.83984375 C32.70167393 61.45419654 24.04651072 52.08109954 10 47 C6.25303286 46.11266612 2.66883618 45.81616676 -1.17578125 45.68359375 C-2.33271484 45.64169922 -3.48964844 45.59980469 -4.68164062 45.55664062 C-5.87982422 45.51732422 -7.07800781 45.47800781 -8.3125 45.4375 C-9.53001953 45.39431641 -10.74753906 45.35113281 -12.00195312 45.30664062 C-15.0011947 45.20078504 -18.00051591 45.09870274 -21 45 C-21.36351563 44.14277344 -21.72703125 43.28554687 -22.1015625 42.40234375 C-25.75919879 34.08356583 -29.29578427 26.22575036 -37.66796875 21.765625 C-42.17866411 20.28472669 -46.9638474 20.00718883 -51.671875 19.58984375 C-55.05385898 18.99045457 -56.05292062 18.71670197 -58 16 C-58.5775 15.0925 -59.155 14.185 -59.75 13.25 C-69.71757293 -1.14760535 -84.61908824 -5.00983357 -101 -8 C-100.67 -8.99 -100.34 -9.98 -100 -11 C-67.48530101 -18.03926473 -29.73904649 -15.88335438 0 0 Z " fill="#060606" transform="translate(137,64)"/>
</g>
<g class="dark">
<path d="M0 0 C0.11320856 -5.08303686 0.11320856 -5.08303686 -1 -10 C2.78786597 -9.4739075 5.17152224 -8.61896089 8 -6 C8 -5.34 8 -4.68 8 -4 C8.99 -3.67 9.98 -3.34 11 -3 C11 -2.34 11 -1.68 11 -1 C11.66 -1 12.32 -1 13 -1 C14.50658452 0.94952037 15.88900839 2.88952361 17.25 4.9375 C17.64896484 5.53071045 18.04792969 6.1239209 18.45898438 6.73510742 C19.26441288 7.93303641 20.06781677 9.13232925 20.86914062 10.33300781 C21.84540047 11.77210588 22.86427302 13.1821255 23.890625 14.5859375 C27.43023285 19.48296778 28.77935514 22.93226632 29 29 C29.59748047 27.80503906 29.59748047 27.80503906 30.20703125 26.5859375 C32.8046875 21.390625 35.40234375 16.1953125 38 11 C39.32 11.33 40.64 11.66 42 12 C42 14.64 42 17.28 42 20 C44.97 20 47.94 20 51 20 C51.33 17.03 51.66 14.06 52 11 C52.99 11 53.98 11 55 11 C55.23710693 11.50974365 55.47421387 12.0194873 55.71850586 12.54467773 C56.78925593 14.84334017 57.86333195 17.14043294 58.9375 19.4375 C59.31068359 20.23994141 59.68386719 21.04238281 60.06835938 21.86914062 C60.42607422 22.63291016 60.78378906 23.39667969 61.15234375 24.18359375 C61.6472229 25.24404907 61.6472229 25.24404907 62.15209961 26.32592773 C62.88534557 27.9891159 62.88534557 27.9891159 64 29 C64.185625 27.741875 64.37125 26.48375 64.5625 25.1875 C65.94888892 18.9241685 69.408151 14.21494395 73 9 C73.53367188 8.16726562 74.06734375 7.33453125 74.6171875 6.4765625 C77.3879131 2.15537906 80.15843815 -1.54259434 84 -5 C84.50789062 -5.46535156 85.01578125 -5.93070313 85.5390625 -6.41015625 C89.59888579 -10 89.59888579 -10 93 -10 C93 -6.7 93 -3.4 93 0 C94.14210937 -0.598125 95.28421875 -1.19625 96.4609375 -1.8125 C125.33087927 -16.20313355 161.89143607 -17.73484374 193 -11 C193.33 -10.01 193.66 -9.02 194 -8 C192.86304688 -7.79246094 191.72609375 -7.58492187 190.5546875 -7.37109375 C175.74209763 -4.49171834 162.85414192 -0.18367756 153 12 C152.41992188 13.04929687 151.83984375 14.09859375 151.2421875 15.1796875 C148.74042309 18.32650614 147.2861593 18.81019742 143.36401367 19.34033203 C142.66638916 19.41364746 141.96876465 19.48696289 141.25 19.5625 C134.66168442 20.49933992 130.42434063 21.95833443 125 26 C124.01 26.33 123.02 26.66 122 27 C121.27095914 28.64034193 120.61344757 30.31301918 120 32 C119.525625 32.763125 119.05125 33.52625 118.5625 34.3125 C117.22381873 36.61503178 116.31162623 38.68327206 115.40234375 41.16796875 C115.13800537 41.88621826 114.87366699 42.60446777 114.60131836 43.34448242 C114.4028833 43.89080322 114.20444824 44.43712402 114 45 C113.22922119 45.01458252 112.45844238 45.02916504 111.66430664 45.04418945 C108.12989827 45.11923166 104.59637693 45.21570647 101.0625 45.3125 C99.24395508 45.34633789 99.24395508 45.34633789 97.38867188 45.38085938 C85.22655137 45.74341581 74.3472945 48.6719094 65.3125 57.25 C57.02514679 66.20262239 52.71328069 76.91063148 48 88 C47.01 88 46.02 88 45 88 C44.68546875 87.29875 44.3709375 86.5975 44.046875 85.875 C42.70988307 82.91106608 41.35760037 79.95454648 40 77 C39.67773438 76.28714844 39.35546875 75.57429688 39.0234375 74.83984375 C32.70167393 61.45419654 24.04651072 52.08109954 10 47 C6.25303286 46.11266612 2.66883618 45.81616676 -1.17578125 45.68359375 C-2.33271484 45.64169922 -3.48964844 45.59980469 -4.68164062 45.55664062 C-5.87982422 45.51732422 -7.07800781 45.47800781 -8.3125 45.4375 C-9.53001953 45.39431641 -10.74753906 45.35113281 -12.00195312 45.30664062 C-15.0011947 45.20078504 -18.00051591 45.09870274 -21 45 C-21.36351563 44.14277344 -21.72703125 43.28554687 -22.1015625 42.40234375 C-25.75919879 34.08356583 -29.29578427 26.22575036 -37.66796875 21.765625 C-42.17866411 20.28472669 -46.9638474 20.00718883 -51.671875 19.58984375 C-55.05385898 18.99045457 -56.05292062 18.71670197 -58 16 C-58.5775 15.0925 -59.155 14.185 -59.75 13.25 C-69.71757293 -1.14760535 -84.61908824 -5.00983357 -101 -8 C-100.67 -8.99 -100.34 -9.98 -100 -11 C-67.48530101 -18.03926473 -29.73904649 -15.88335438 0 0 Z " fill="#F5F7FA" transform="translate(137,64)"/>
</g>
</svg>
